<svg width="20" height="20" viewBox="0 0 20 20" fill="none" xmlns="http://www.w3.org/2000/svg">
<g clip-path="url(#clip0_13_1082)">
<path d="M18.599 3.69255L7.08321 15.2076C7.00578 15.2853 6.91377 15.347 6.81245 15.389C6.71113 15.4311 6.6025 15.4528 6.49279 15.4528C6.38308 15.4528 6.27445 15.4311 6.17313 15.389C6.07181 15.347 5.9798 15.2853 5.90237 15.2076L1.44904 10.7501C1.37161 10.6723 1.2796 10.6106 1.17828 10.5686C1.07697 10.5265 0.968334 10.5048 0.858622 10.5048C0.748911 10.5048 0.640279 10.5265 0.53896 10.5686C0.437642 10.6106 0.34563 10.6723 0.268205 10.7501C0.190475 10.8275 0.128798 10.9195 0.0867131 11.0208C0.0446284 11.1221 0.0229645 11.2308 0.0229645 11.3405C0.0229645 11.4502 0.0446284 11.5588 0.0867131 11.6601C0.128798 11.7614 0.190475 11.8535 0.268205 11.9309L4.72321 16.3851C5.19316 16.8541 5.83004 17.1176 6.49404 17.1176C7.15804 17.1176 7.79492 16.8541 8.26487 16.3851L19.7799 4.87255C19.8575 4.79514 19.9191 4.70318 19.9611 4.60194C20.0031 4.5007 20.0247 4.39216 20.0247 4.28255C20.0247 4.17294 20.0031 4.0644 19.9611 3.96316C19.9191 3.86192 19.8575 3.76996 19.7799 3.69255C19.7024 3.61482 19.6104 3.55314 19.5091 3.51106C19.4078 3.46898 19.2992 3.44731 19.1895 3.44731C19.0797 3.44731 18.9711 3.46898 18.8698 3.51106C18.7685 3.55314 18.6765 3.61482 18.599 3.69255Z" fill="white"/>
</g>
<defs>
<clipPath id="clip0_13_1082">
<rect width="20" height="20" fill="white"/>
</clipPath>
</defs>
</svg>
