<!-- icon666.com - MILLIONS vector ICONS FREE --><svg enable-background="new 0 0 520 520" viewBox="0 0 520 520" xmlns="http://www.w3.org/2000/svg"><g id="_x31_20_x2C__Eye_x2C__See_x2C__View_x2C__Vision"><g><path d="m507.45 253.329c-1.13-1.261-28.159-31.232-72.062-61.557-66.834-46.166-130.561-63.054-179.017-61.719-69.578 1.117-131.661 34.02-171.761 61.719-43.902 30.325-70.932 60.296-72.061 61.557-3.4 3.798-3.4 9.544 0 13.342 1.129 1.261 28.159 31.231 72.061 61.557 51.678 35.696 113.092 61.772 175.39 61.772 62.303 0 123.719-26.081 175.389-61.772 43.902-30.325 70.932-60.296 72.062-61.557 3.399-3.797 3.399-9.545-.001-13.342zm-137.45 6.671c0 59.617-47.673 108.306-106.899 109.954-4.172.063-2.031.063-6.196 0-59.229-1.645-106.905-50.335-106.905-109.954 0-60.611 49.308-110 110-110 60.603 0 110 49.299 110 110zm-336.16-.004c35.46-35.76 83.309-70.322 132.873-90.436-48.988 50.514-48.921 130.428-.004 180.876-49.032-19.9-96.795-54.088-132.869-90.44zm319.449 90.443c48.986-50.516 48.92-130.428.003-180.875 49.024 19.896 96.787 54.082 132.868 90.44-35.462 35.763-83.308 70.32-132.871 90.435z"></path><path d="m210 260c0 27.57 22.43 50 50 50s50-22.43 50-50-22.43-50-50-50-50 22.43-50 50zm80 0c0 16.542-13.458 30-30 30s-30-13.458-30-30 13.458-30 30-30 30 13.458 30 30z"></path><path d="m260 410c-5.522 0-10 4.478-10 10v30c0 5.522 4.477 10 10 10s10-4.478 10-10v-30c0-5.522-4.478-10-10-10z"></path><path d="m142.929 392.929-20 20c-3.905 3.905-3.905 10.237 0 14.143 3.906 3.905 10.237 3.904 14.143 0l20-20c3.905-3.905 3.905-10.237 0-14.143-3.905-3.905-10.238-3.905-14.143 0z"></path><path d="m203.293 404.098c-5.18-1.917-10.933.726-12.85 5.905l-9.821 26.524c-1.917 5.18.727 10.933 5.906 12.851 5.159 1.909 10.925-.705 12.85-5.905l9.821-26.524c1.918-5.18-.726-10.933-5.906-12.851z"></path><path d="m367.071 392.929c-3.906-3.904-10.236-3.904-14.143 0-3.905 3.905-3.905 10.237 0 14.143l20 20c3.907 3.905 10.236 3.904 14.143 0 3.905-3.905 3.905-10.237 0-14.143z"></path><path d="m317.984 407.455c-3.324-4.409-9.594-5.288-14.005-1.964-4.41 3.325-5.289 9.595-1.964 14.005l20 26.524c3.33 4.417 9.601 5.285 14.005 1.964 4.41-3.325 5.289-9.595 1.964-14.005z"></path><path d="m260 110c5.522 0 10-4.477 10-10v-30c0-5.523-4.478-10-10-10s-10 4.477-10 10v30c0 5.523 4.478 10 10 10z"></path><path d="m377.071 127.071 20-20c3.905-3.905 3.905-10.237 0-14.143-3.906-3.904-10.236-3.904-14.143 0l-20 20c-3.905 3.905-3.905 10.237 0 14.143 3.908 3.906 10.237 3.905 14.143 0z"></path><path d="m320.179 116.527c4.063 0 7.885-2.497 9.379-6.531l9.82-26.524c1.918-5.179-.727-10.933-5.906-12.85-5.177-1.917-10.932.727-12.85 5.906l-9.82 26.524c-2.436 6.577 2.48 13.475 9.377 13.475z"></path><path d="m152.929 127.071c3.906 3.905 10.237 3.904 14.143 0 3.905-3.905 3.905-10.237 0-14.143l-20-20c-3.905-3.904-10.237-3.904-14.143 0-3.905 3.905-3.905 10.237 0 14.143z"></path><path d="m202.016 112.545c3.324 4.409 9.594 5.29 14.005 1.964 4.41-3.325 5.289-9.595 1.964-14.005l-20-26.524c-3.325-4.41-9.595-5.29-14.005-1.964-4.41 3.325-5.289 9.595-1.964 14.005z"></path></g></g></svg>