<svg width="30" height="30" viewBox="0 0 30 30" fill="none" xmlns="http://www.w3.org/2000/svg">
<circle cx="15" cy="15" r="14.5" fill="#373737" stroke="white"/>
<g clip-path="url(#clip0_13_1214)">
<path d="M21.3309 7.66967C20.9343 7.2737 20.3968 7.0513 19.8364 7.0513C19.276 7.0513 18.7385 7.2737 18.3419 7.66967L8.85459 17.157C8.58291 17.4272 8.36749 17.7485 8.2208 18.1025C8.07411 18.4564 7.99907 18.8359 8.00001 19.2191V20.4167C8.00001 20.5714 8.06147 20.7198 8.17086 20.8292C8.28026 20.9385 8.42863 21 8.58334 21H9.78093C10.164 21.0011 10.5436 20.9262 10.8975 20.7796C11.2515 20.633 11.5728 20.4176 11.843 20.146L21.3309 10.6581C21.7267 10.2615 21.949 9.72415 21.949 9.16388C21.949 8.60361 21.7267 8.06622 21.3309 7.66967ZM11.0182 19.3212C10.6892 19.648 10.2447 19.832 9.78093 19.8333H9.16668V19.2191C9.16609 18.9892 9.2111 18.7615 9.29911 18.5491C9.38713 18.3367 9.51639 18.1439 9.67943 17.9818L16.8795 10.7818L18.2212 12.1234L11.0182 19.3212ZM20.5055 9.83325L19.0437 11.2957L17.702 9.95692L19.1644 8.4945C19.2525 8.4066 19.3571 8.33691 19.4721 8.28941C19.5871 8.24191 19.7104 8.21753 19.8348 8.21767C19.9593 8.2178 20.0825 8.24245 20.1974 8.2902C20.3123 8.33795 20.4167 8.40787 20.5046 8.49596C20.5925 8.58406 20.6622 8.6886 20.7097 8.80363C20.7572 8.91866 20.7816 9.04192 20.7815 9.16637C20.7813 9.29082 20.7567 9.41402 20.7089 9.52895C20.6612 9.64387 20.5913 9.74827 20.5032 9.83617L20.5055 9.83325Z" fill="white"/>
</g>
<defs>
<clipPath id="clip0_13_1214">
<rect width="14" height="14" fill="white" transform="translate(8 7)"/>
</clipPath>
</defs>
</svg>
