<svg width="20" height="15" viewBox="0 0 20 15" fill="none" xmlns="http://www.w3.org/2000/svg">
<path d="M18.599 0.692507L7.08319 12.2075C7.00577 12.2852 6.91375 12.3469 6.81244 12.389C6.71112 12.4311 6.60249 12.4527 6.49277 12.4527C6.38306 12.4527 6.27443 12.4311 6.17311 12.389C6.07179 12.3469 5.97978 12.2852 5.90236 12.2075L1.44902 7.75001C1.3716 7.67228 1.27959 7.6106 1.17827 7.56851C1.07695 7.52643 0.968318 7.50477 0.858607 7.50477C0.748895 7.50477 0.640264 7.52643 0.538945 7.56851C0.437626 7.6106 0.345615 7.67228 0.26819 7.75001C0.19046 7.82743 0.128783 7.91944 0.0866978 8.02076C0.0446131 8.12208 0.0229492 8.23071 0.0229492 8.34042C0.0229492 8.45013 0.0446131 8.55877 0.0866978 8.66008C0.128783 8.7614 0.19046 8.85342 0.26819 8.93084L4.72319 13.385C5.19315 13.8541 5.83002 14.1175 6.49402 14.1175C7.15803 14.1175 7.7949 13.8541 8.26486 13.385L19.7799 1.87251C19.8575 1.7951 19.919 1.70314 19.961 1.6019C20.0031 1.50065 20.0247 1.39212 20.0247 1.28251C20.0247 1.17289 20.0031 1.06436 19.961 0.963117C19.919 0.861875 19.8575 0.769916 19.7799 0.692507C19.7024 0.614776 19.6104 0.553099 19.5091 0.511014C19.4078 0.46893 19.2992 0.447266 19.1894 0.447266C19.0797 0.447266 18.9711 0.46893 18.8698 0.511014C18.7685 0.553099 18.6765 0.614776 18.599 0.692507Z" fill="#A3A3A3"/>
</svg>
